<svg xmlns="http://www.w3.org/2000/svg" viewBox="0 0 32 32">
  <path d="M15 4L15 7.7304688L7 11.330078L7 21.865234L2.1796875 24.548828L3.1542969 26.296875L7.9042969 23.652344L16 28.144531L24.095703 23.652344L28.845703 26.296875L29.820312 24.550781L25 21.865234L25 11.330078L17 7.7285156L17 4L15 4 z M 16 9.4726562L21.667969 12.023438L16 14.857422L10.332031 12.023438L16 9.4726562 z M 9 13.59375L15 16.59375L15 25.300781L9 21.972656L9 13.59375 z M 23 13.59375L23 21.972656L17 25.300781L17 16.59375L23 13.59375 z" fill="#10413B" />
</svg>